<svg width="40" height="40" viewBox="0 0 40 40" fill="none" xmlns="http://www.w3.org/2000/svg">
<g id="Telegram Logo">
<circle id="Ellipse 3" cx="20" cy="20" r="20" fill="#1E2E3D"/>
<path id="Vector 2" d="M8.90498 19.9163C8.90498 19.9163 8.61714 20.0294 8.48643 20.1684C8.40547 20.2545 8.36793 20.3129 8.31901 20.4205C8.26301 20.5437 8.21849 20.6224 8.2353 20.7567C8.26709 21.0104 8.73756 21.1768 8.73756 21.1768L9.99319 21.597L11.7511 22.1852L14.0112 22.8575L14.5135 22.5214L15.0157 22.1852L16.2714 21.4289L19.0338 19.6642L22.2984 17.6474L25.4622 15.6306C25.4622 15.6306 25.6794 15.4626 25.8142 15.4625C25.949 15.4624 25.9664 15.4625 26.0504 15.5465C26.1345 15.6306 26.1345 15.7146 26.0504 15.7986C25.9176 15.9315 25.8588 15.9492 25.7305 16.0508C25.4214 16.2956 24.9771 16.723 24.9771 16.723L23.4704 18.1516L19.9546 21.3449L16.6899 24.202L16.3551 29.244C16.3551 29.244 16.7365 29.1836 16.9771 29.076C17.2731 28.9436 17.4182 28.8015 17.6471 28.5718C17.9086 28.3092 18.2804 27.8995 18.2804 27.8995L19.7872 26.555L24.3912 29.9163C24.3912 29.9163 24.7679 30.2391 25.0608 30.3365L25.067 30.3385C25.2828 30.4103 25.4206 30.4561 25.6468 30.4205C25.8208 30.3932 25.9268 30.3612 26.0654 30.2525C26.1942 30.1513 26.2313 30.0563 26.3165 29.9163C26.3927 29.7911 26.4706 29.5802 26.4706 29.5802L27.321 25.5466L28.8278 18.5718L29.8319 14.1179C29.8319 14.1179 29.916 13.6978 29.916 13.4457C29.916 13.1936 29.8878 13.1834 29.8323 13.0256C29.7836 12.8872 29.7411 12.8147 29.6648 12.6894C29.5796 12.5495 29.466 12.4409 29.3277 12.3529C29.1871 12.2634 29.1582 12.2743 28.9916 12.2689C28.7928 12.2624 28.6871 12.3105 28.4929 12.3533C28.0889 12.4423 27.4884 12.6894 27.4884 12.6894L26.9024 12.9415L22.0473 14.7903L11.4163 18.9079L9.65836 19.5802L8.90498 19.9163Z" fill="white"/>
</g>
</svg>
