<svg width="40" height="40" viewBox="0 0 40 40" fill="none" xmlns="http://www.w3.org/2000/svg">
<g id="VK Logo 1" clip-path="url(#clip0_1_105)">
<g id="Clip path group">
<mask id="mask0_1_105" style="mask-type:luminance" maskUnits="userSpaceOnUse" x="0" y="0" width="40" height="40">
<g id="clip0_2_40">
<path id="Vector" d="M39.802 0H0.198021V40H39.802V0Z" fill="white"/>
</g>
</mask>
<g mask="url(#mask0_1_105)">
<g id="Group">
<path id="Vector_2" d="M0.198021 19.2C0.198021 10.149 0.198021 5.62356 2.98196 2.81178C5.7659 0 10.2466 0 19.2079 0H20.7921C29.7534 0 34.2341 0 37.0181 2.81178C39.802 5.62356 39.802 10.149 39.802 19.2V20.8C39.802 29.851 39.802 34.3764 37.0181 37.1882C34.2341 40 29.7534 40 20.7921 40H19.2079C10.2466 40 5.7659 40 2.98196 37.1882C0.198021 34.3764 0.198021 29.851 0.198021 20.8V19.2Z" fill="#1E2E3D"/>
<path id="Vector_3" d="M21.3894 28.65C12.363 28.65 7.21453 22.4 7 12H11.5215C11.67 19.6333 15.0032 22.8666 17.6435 23.5333V12H21.9011V18.5833C24.5083 18.3 27.2472 15.3 28.1714 12H32.4289C31.7193 16.0667 28.749 19.0666 26.6368 20.3C28.749 21.3 32.132 23.9166 33.4192 28.65H28.7326C27.7259 25.4833 25.2179 23.0333 21.9011 22.7V28.65H21.3894Z" fill="white"/>
</g>
</g>
</g>
</g>
<defs>
<clipPath id="clip0_1_105">
<rect width="40" height="40" fill="white"/>
</clipPath>
</defs>
</svg>
